<svg width="152" height="152" viewBox="0 0 152 152" fill="none" xmlns="http://www.w3.org/2000/svg">
<g clip-path="url(#clip0_2029_492)">
<path d="M43.4167 76.375C43.4167 80.3354 44.1254 84.2665 45.5225 87.9803C47.0822 92.1257 49.4596 95.9158 52.5161 99.1212C55.5733 102.327 59.2492 104.884 63.3167 106.639C67.3838 108.393 71.7619 109.309 76.1911 109.333C80.6209 109.357 85.0113 108.492 89.0976 106.781C93.1838 105.071 96.8846 102.551 99.9764 99.3787C103.067 96.2068 105.49 92.444 107.094 88.316C108.575 84.5062 109.32 80.4565 109.32 76.375H118.732C118.732 81.6228 117.771 86.8293 115.867 91.7277C113.804 97.0358 110.692 101.875 106.717 105.954C102.742 110.032 97.9832 113.264 92.73 115.462C87.4768 117.661 81.8352 118.781 76.1405 118.75C70.4461 118.719 64.8166 117.539 59.5878 115.283C54.3585 113.027 49.6369 109.739 45.7065 105.618C41.7761 101.497 38.7137 96.6256 36.7082 91.2954C34.9122 86.5212 34 81.4662 34 76.375H43.4167Z" fill="black"/>
<path fill-rule="evenodd" clip-rule="evenodd" d="M76.3704 34C88.1412 42.475 99.9121 59.425 99.9121 76.375C99.9121 89.3767 89.3721 99.9167 76.3704 99.9167C63.3687 99.9167 52.8287 89.3767 52.8287 76.375C52.8287 59.425 64.5996 42.475 76.3704 34ZM70.2919 89.1068C72.1351 89.9884 74.1908 90.5 76.3704 90.5C84.1714 90.5 90.4954 84.176 90.4954 76.375C90.4954 74.4198 90.1767 72.1633 89.631 69.7677L70.2919 89.1068ZM76.3704 45.7708C69.3079 50.4792 62.2454 66.9583 62.2454 76.375C62.2454 78.5524 62.754 80.6071 63.634 82.4489L86.2882 59.7947C83.6177 53.7172 79.9982 48.1893 76.3704 45.7708Z" fill="black"/>
<path d="M19.4368 59.5783L19.0681 61.1082L15.7092 62.1165L15.299 63.8188L18.244 64.5284L17.9118 65.9069L10.0794 64.0196L10.828 60.9128C10.9748 60.3036 11.1976 59.8066 11.4966 59.4219C11.7955 59.0373 12.1559 58.7723 12.5776 58.6272C12.9958 58.4812 13.4608 58.4698 13.9725 58.5931C14.5156 58.724 14.9445 58.9691 15.2594 59.3286C15.5708 59.6872 15.7543 60.133 15.8101 60.6657L19.4368 59.5783ZM14.1711 63.547L14.5637 61.9179C14.6853 61.4131 14.6683 60.9946 14.5126 60.6625C14.3577 60.3268 14.0784 60.1103 13.6746 60.013C13.2708 59.9157 12.9239 59.9795 12.634 60.2043C12.3441 60.4291 12.138 60.7956 12.0155 61.3039L11.6229 62.933L14.1711 63.547ZM21.4798 55.2105L21.0041 55.656L20.6753 55.3176C20.2907 55.6637 19.8583 55.9253 19.3782 56.1024C18.8963 56.2747 18.3924 56.3522 17.8667 56.3347C17.341 56.3172 16.8146 56.1963 16.2874 55.972C15.7306 55.735 15.259 55.4214 14.8724 55.0312C14.4873 54.6377 14.1961 54.1927 13.9987 53.6962C13.7981 53.1984 13.7025 52.6732 13.7119 52.1207C13.7228 51.5649 13.8473 51.007 14.0857 50.4469C14.1769 50.2327 14.2807 50.0298 14.3973 49.8381C14.5153 49.6432 14.6439 49.4644 14.7831 49.3019L14.4317 48.948L14.8897 48.4891L15.2263 48.8367C15.6128 48.4953 16.044 48.241 16.5199 48.0738C16.9972 47.9034 17.4963 47.8278 18.0173 47.8472C18.5397 47.8633 19.0645 47.9835 19.5917 48.2078C20.1452 48.4434 20.6169 48.757 21.0067 49.1486C21.3932 49.5388 21.6868 49.9828 21.8874 50.4807C22.0847 50.9772 22.1787 51.5017 22.1693 52.0541C22.1599 52.6066 22.0353 53.1646 21.7955 53.728C21.7072 53.9355 21.6054 54.1335 21.4902 54.3219C21.3797 54.5083 21.2572 54.6819 21.1227 54.8426L21.4798 55.2105ZM19.7512 54.3756L15.6741 50.2122C15.586 50.3187 15.5047 50.432 15.4302 50.5521C15.3558 50.6722 15.2898 50.7997 15.2323 50.9348C15.0767 51.3005 15.0005 51.667 15.0038 52.0342C15.007 52.4014 15.0832 52.7529 15.2321 53.0887C15.3778 53.4231 15.588 53.7246 15.8628 53.9934C16.1376 54.2621 16.4677 54.4785 16.8532 54.6425C17.1992 54.7897 17.5461 54.8751 17.8941 54.8987C18.2388 54.9209 18.5697 54.8885 18.8869 54.8017C19.2021 54.7101 19.4902 54.5681 19.7512 54.3756ZM20.6489 53.24C20.8031 52.8776 20.8786 52.5128 20.8753 52.1456C20.8735 51.7751 20.799 51.4243 20.6519 51.0932C20.503 50.7574 20.2904 50.4568 20.0142 50.1914C19.7394 49.9226 19.4093 49.7063 19.0238 49.5422C18.6811 49.3964 18.3398 49.3114 17.9998 49.2874C17.6579 49.2586 17.33 49.2884 17.0162 49.3766C16.7004 49.4602 16.4145 49.5972 16.1582 49.7878L20.2317 53.9322C20.3138 53.8309 20.3906 53.7235 20.4622 53.61C20.532 53.4918 20.5942 53.3685 20.6489 53.24ZM27.8951 42.0174L27.0491 43.3444L23.5448 43.206L22.6036 44.6825L25.1579 46.3109L24.3957 47.5066L17.6022 43.1756L19.3201 40.4808C19.6569 39.9524 20.0293 39.555 20.437 39.2883C20.8448 39.0217 21.2717 38.8883 21.7177 38.8882C22.1607 38.886 22.6041 39.0265 23.0479 39.3094C23.5189 39.6097 23.8449 39.981 24.0258 40.4233C24.2037 40.8637 24.2324 41.3448 24.1119 41.8668L27.8951 42.0174ZM21.6253 44.0588L22.5261 42.6457C22.8052 42.2079 22.9252 41.8067 22.8859 41.4419C22.8486 41.0742 22.6548 40.7786 22.3046 40.5554C21.9543 40.3321 21.6056 40.2796 21.2584 40.398C20.9111 40.5163 20.597 40.7959 20.316 41.2367L19.4151 42.6498L21.6253 44.0588ZM32.6337 36.1226L29.2771 40.0367L23.1613 34.7921L24.0843 33.7157L29.2542 38.1492L31.6877 35.3114L32.6337 36.1226ZM34.2784 34.3474L28.8973 28.3514L32.6988 24.9397L33.5311 25.8671L30.7849 28.3317L32.2019 29.9106L34.7882 27.5896L35.6169 28.5129L33.0306 30.834L34.5014 32.4729L37.2876 29.9725L38.1199 30.8999L34.2784 34.3474ZM41.814 20.7417C41.4622 20.6675 41.1006 20.6702 40.7293 20.7497C40.361 20.8272 40.0104 20.9745 39.6774 21.1915C39.3384 21.4124 39.066 21.6732 38.8602 21.9739C38.6574 22.2727 38.5254 22.5981 38.4641 22.95C38.4008 23.2989 38.4114 23.6596 38.4959 24.0319C38.5784 24.4012 38.7379 24.7674 38.9744 25.1304C39.2129 25.4964 39.4873 25.7963 39.7977 26.03C40.1091 26.2587 40.4392 26.4176 40.7878 26.5067C41.1395 26.5938 41.4954 26.6055 41.8556 26.5418C42.2158 26.4781 42.5654 26.3357 42.9045 26.1149C43.1985 25.9233 43.4392 25.7024 43.6265 25.4521C43.8119 25.1988 43.9419 24.926 44.0165 24.6338C44.0922 24.3367 44.1108 24.0275 44.0725 23.7063C44.0341 23.3851 43.9377 23.0633 43.7832 22.7409L41.6501 24.1307L41.052 23.2127L44.2336 21.1397L44.5583 21.5692C44.8926 22.0822 45.119 22.6035 45.2375 23.1331C45.3572 23.6578 45.3731 24.1709 45.2854 24.6725C45.1957 25.1712 45.0061 25.6345 44.7165 26.0624C44.427 26.4904 44.0407 26.8618 43.5577 27.1765C43.0597 27.501 42.54 27.7135 41.9987 27.8141C41.4603 27.9127 40.9295 27.9081 40.4063 27.8003C39.884 27.6875 39.3956 27.4758 38.9411 27.1651C38.4895 26.8524 38.1005 26.4456 37.774 25.9446C37.4496 25.4466 37.2355 24.9279 37.132 24.3885C37.0294 23.8441 37.0306 23.3113 37.1354 22.79C37.2432 22.2668 37.4519 21.7803 37.7616 21.3307C38.0723 20.8761 38.4751 20.4876 38.9701 20.165C39.4411 19.8581 39.9439 19.6459 40.4785 19.5284C41.0161 19.4089 41.5531 19.3903 42.0895 19.4724L41.814 20.7417ZM51.9436 15.6323C51.6101 15.4979 51.2536 15.4376 50.8741 15.4512C50.498 15.4634 50.127 15.5474 49.7613 15.703C49.389 15.8615 49.0754 16.0709 48.8204 16.3312C48.5686 16.5901 48.3819 16.8875 48.2603 17.2234C48.1372 17.5559 48.0848 17.9129 48.1032 18.2943C48.1201 18.6723 48.2134 19.0607 48.3831 19.4594C48.5542 19.8613 48.7722 20.2044 49.0371 20.4885C49.304 20.768 49.6013 20.982 49.9291 21.1304C50.2602 21.2775 50.6087 21.351 50.9744 21.3509C51.3402 21.3509 51.7093 21.2717 52.0816 21.1132C52.4045 20.9758 52.68 20.8001 52.9081 20.5863C53.1347 20.3692 53.3103 20.1232 53.4346 19.8485C53.5608 19.5691 53.633 19.2679 53.6512 18.9449C53.6694 18.6219 53.6305 18.2882 53.5345 17.9438L51.192 18.9409L50.7629 17.9327L54.2569 16.4455L54.5019 16.925C54.7417 17.4884 54.8738 18.0412 54.8983 18.5834C54.9247 19.1209 54.8511 19.6289 54.6773 20.1076C54.5022 20.583 54.2348 21.0062 53.8751 21.3772C53.5155 21.7482 53.0704 22.0466 52.54 22.2724C51.993 22.5052 51.4443 22.6239 50.8937 22.6287C50.3464 22.632 49.8245 22.535 49.328 22.3378C48.8334 22.1358 48.3894 21.8422 47.9959 21.4571C47.6056 21.0706 47.2934 20.6022 47.0592 20.052C46.8265 19.5051 46.706 18.957 46.698 18.4079C46.6919 17.854 46.7858 17.3295 46.9798 16.8344C47.1771 16.3379 47.4673 15.8953 47.8505 15.5064C48.2357 15.1129 48.7 14.8005 49.2437 14.5691C49.7609 14.3489 50.293 14.2275 50.8399 14.2049C51.39 14.1809 51.9221 14.256 52.436 14.4303L51.9436 15.6323ZM58.4369 19.7082L56.4743 11.8943L61.4284 10.65L61.7319 11.8586L58.1531 12.7574L58.6699 14.8151L62.0403 13.9686L62.3426 15.1719L58.9722 16.0184L59.5086 18.1542L63.1395 17.2423L63.443 18.4509L58.4369 19.7082ZM72.6571 17.2102L71.0914 17.3696L69.0267 14.5348L67.2847 14.7121L67.5915 17.7258L66.1808 17.8694L65.365 9.85418L68.5443 9.53058C69.1678 9.46712 69.7105 9.51266 70.1725 9.66719C70.6345 9.82172 71.0039 10.0739 71.2807 10.4236C71.5571 10.7698 71.7219 11.2047 71.7752 11.7284C71.8318 12.2841 71.7427 12.7701 71.5079 13.1863C71.2727 13.5989 70.9131 13.9199 70.4289 14.1491L72.6571 17.2102ZM67.1672 13.5579L68.8344 13.3882C69.3509 13.3356 69.7401 13.1809 70.0019 12.9239C70.2672 12.6665 70.3789 12.3312 70.3368 11.918C70.2948 11.5048 70.1196 11.1986 69.8114 10.9997C69.5032 10.8007 69.0891 10.7277 68.569 10.7806L66.9018 10.9503L67.1672 13.5579ZM77.4575 17.6775L76.8783 17.3788L77.0869 16.9555C76.6319 16.7092 76.2405 16.3895 75.9127 15.9966C75.5888 15.6003 75.3469 15.1516 75.1871 14.6504C75.0273 14.1493 74.9648 13.6128 74.9994 13.0409C75.036 12.4369 75.1733 11.8874 75.4113 11.3924C75.653 10.8977 75.9746 10.4741 76.3762 10.1218C76.778 9.76585 77.2407 9.49971 77.7644 9.32337C78.2916 9.14723 78.859 9.07757 79.4666 9.11437C79.699 9.12844 79.9249 9.15827 80.1446 9.20386C80.3678 9.24966 80.5794 9.3109 80.7792 9.38758L80.9948 8.93787L81.5806 9.2155L81.366 9.64912C81.8172 9.89886 82.2014 10.2199 82.5184 10.6121C82.839 11.0046 83.0775 11.4496 83.2339 11.9469C83.3939 12.4445 83.4566 12.9792 83.422 13.5511C83.3856 14.1515 83.2483 14.701 83.01 15.1996C82.772 15.6946 82.4521 16.12 82.0503 16.4759C81.6487 16.8283 81.186 17.0926 80.6624 17.269C80.1387 17.4453 79.5713 17.515 78.9601 17.4779C78.7349 17.4643 78.5143 17.4348 78.2982 17.3894C78.0855 17.3479 77.8809 17.2906 77.6844 17.2177L77.4575 17.6775ZM77.6646 15.7691L80.2202 10.5321C80.0903 10.4848 79.9564 10.4462 79.8183 10.4163C79.6802 10.3864 79.5378 10.3671 79.3913 10.3582C78.9946 10.3342 78.6238 10.3852 78.2789 10.5114C77.9341 10.6376 77.6284 10.8272 77.362 11.0801C77.0958 11.3294 76.8822 11.6286 76.7211 11.9776C76.5601 12.3265 76.4669 12.7101 76.4416 13.1283C76.4189 13.5036 76.4547 13.8591 76.5492 14.1948C76.6439 14.527 76.7853 14.828 76.9734 15.0976C77.1653 15.364 77.3957 15.5878 77.6646 15.7691ZM79.0354 16.2341C79.4286 16.2579 79.7976 16.2068 80.1424 16.0806C80.4909 15.9546 80.7964 15.7668 81.059 15.5173C81.3255 15.2644 81.5374 14.9633 81.6949 14.6141C81.8559 14.2651 81.9491 13.8816 81.9744 13.4634C81.9969 13.0917 81.9625 12.7416 81.8712 12.4132C81.7837 12.0815 81.6457 11.7826 81.4574 11.5165C81.2728 11.247 81.0478 11.0235 80.7823 10.846L78.2434 16.0732C78.3664 16.1165 78.4933 16.1529 78.6242 16.1823C78.759 16.2084 78.896 16.2257 79.0354 16.2341ZM85.5125 16.9388L86.4051 16.0272C86.6039 16.27 86.8009 16.4793 86.9963 16.6553C87.1925 16.8278 87.3974 16.9692 87.6112 17.0795C87.825 17.1899 88.0489 17.2714 88.283 17.3239C88.5834 17.3913 88.8539 17.4043 89.0944 17.3629C89.3392 17.3187 89.5412 17.2283 89.7003 17.0915C89.8594 16.9547 89.9637 16.7763 90.0131 16.5562C90.0688 16.3081 90.0399 16.0851 89.9265 15.8872C89.8174 15.6866 89.6557 15.4998 89.4413 15.3269C89.2276 15.1505 88.9958 14.9737 88.7456 14.7965C88.5176 14.6352 88.288 14.4644 88.0569 14.2841C87.8293 14.1046 87.6295 13.9074 87.4575 13.6927C87.2863 13.4744 87.1631 13.2303 87.088 12.9602C87.0163 12.6909 87.0189 12.385 87.0957 12.0426C87.1953 11.5989 87.3938 11.238 87.6911 10.9597C87.9892 10.678 88.3556 10.4923 88.7904 10.4028C89.226 10.3097 89.6971 10.32 90.2037 10.4337C90.56 10.5137 90.9146 10.6428 91.2672 10.821C91.6242 10.9965 91.9649 11.2198 92.2894 11.4908L91.4886 12.4836C91.2735 12.2812 91.0352 12.1084 90.7737 11.9653C90.513 11.8187 90.2551 11.7168 90.0001 11.6596C89.7485 11.6031 89.5177 11.5935 89.3075 11.6308C89.1016 11.6653 88.928 11.7438 88.7867 11.8662C88.6498 11.9859 88.5597 12.1419 88.5166 12.334C88.4656 12.5611 88.4924 12.769 88.5969 12.9575C88.7048 13.1469 88.8604 13.3286 89.0635 13.5027C89.2674 13.6732 89.4875 13.8455 89.7237 14.0196C89.9598 14.1937 90.194 14.3766 90.4263 14.5681C90.6628 14.757 90.8693 14.9648 91.046 15.1916C91.2261 15.4192 91.353 15.6716 91.4265 15.9486C91.5036 16.2265 91.503 16.5401 91.4246 16.8895C91.3226 17.3437 91.1141 17.7171 90.7989 18.0096C90.4879 18.2995 90.0978 18.4927 89.6284 18.5892C89.1598 18.6822 88.6408 18.6648 88.0713 18.537C87.5612 18.4225 87.0905 18.2306 86.6592 17.9613C86.2278 17.692 85.8456 17.3512 85.5125 16.9388ZM96.419 20.7926L95.0893 20.3002L97.4542 13.9135L95.1574 13.063L95.5901 11.8944L101.508 14.0859L101.076 15.2545L98.784 14.4058L96.419 20.7926ZM100.806 22.5185L104.584 15.4025L108.977 17.7346L108.393 18.8352L105.252 17.168L104.258 19.0419L107.208 20.6084L106.627 21.7043L103.676 20.1377L102.059 23.1834L100.806 22.5185ZM110.64 28.7353C110.153 28.3695 109.766 27.9487 109.479 27.4729C109.194 26.9992 109.013 26.4981 108.936 25.9695C108.86 25.438 108.891 24.9056 109.028 24.3722C109.169 23.8381 109.421 23.3306 109.782 22.8498C110.146 22.366 110.564 21.9834 111.035 21.7017C111.51 21.4222 112.011 21.2462 112.541 21.1737C113.072 21.0984 113.605 21.1316 114.139 21.2732C114.676 21.417 115.189 21.6729 115.679 22.0408C116.165 22.4066 116.551 22.8263 116.835 23.3C117.12 23.7736 117.3 24.2762 117.375 24.8077C117.453 25.3363 117.422 25.8662 117.282 26.3974C117.143 26.9286 116.891 27.4361 116.527 27.9198C116.166 28.4007 115.748 28.7834 115.275 29.0679C114.803 29.3496 114.302 29.528 113.77 29.6034C113.241 29.6759 112.709 29.6413 112.175 29.4996C111.641 29.358 111.129 29.1032 110.64 28.7353ZM111.388 27.7392C111.706 27.978 112.044 28.1399 112.401 28.2248C112.758 28.3096 113.115 28.3204 113.472 28.2571C113.834 28.193 114.176 28.0587 114.5 27.8543C114.827 27.652 115.116 27.3834 115.368 27.0485C115.62 26.7136 115.798 26.3611 115.901 25.9909C116.007 25.623 116.04 25.2578 115.999 24.8953C115.963 24.5322 115.854 24.1909 115.673 23.8713C115.493 23.5517 115.243 23.2725 114.926 23.0336C114.611 22.797 114.273 22.6351 113.913 22.5481C113.556 22.4632 113.196 22.4528 112.835 22.5168C112.478 22.5802 112.136 22.713 111.809 22.9153C111.483 23.1176 111.193 23.3862 110.942 23.7211C110.69 24.056 110.512 24.4085 110.409 24.7787C110.305 25.1488 110.272 25.5154 110.308 25.8786C110.349 26.241 110.46 26.582 110.641 26.9016C110.824 27.2233 111.074 27.5025 111.388 27.7392ZM119.651 36.4507L116.062 32.7486L121.846 27.1407L122.833 28.1587L117.944 32.8993L120.546 35.5833L119.651 36.4507ZM121.259 38.2569L127.79 33.5401L129.275 35.5954C129.847 36.3879 130.21 37.1683 130.363 37.9368C130.516 38.7052 130.46 39.4234 130.196 40.0912C129.935 40.7569 129.469 41.3318 128.798 41.8161C128.13 42.2983 127.438 42.5597 126.721 42.6005C126.004 42.6413 125.305 42.4682 124.623 42.0813C123.942 41.6944 123.315 41.1047 122.743 40.3122L121.259 38.2569ZM123.099 38.6769L123.785 39.6262C124.189 40.1864 124.62 40.5996 125.077 40.8657C125.54 41.1327 126.013 41.2476 126.499 41.2105C126.987 41.1763 127.47 40.9863 127.949 40.6404C128.428 40.2945 128.76 39.8955 128.946 39.4433C129.134 38.994 129.173 38.5091 129.062 37.9885C128.956 37.4687 128.7 36.9287 128.296 36.3684L127.61 35.4192L123.099 38.6769ZM127.128 46.8304C127.031 46.6548 127.006 46.4843 127.054 46.3189C127.101 46.1535 127.212 46.0232 127.384 45.928C127.56 45.8311 127.73 45.8065 127.895 45.8542C128.064 45.9003 128.197 46.011 128.294 46.1866C128.389 46.359 128.411 46.5288 128.36 46.6959C128.314 46.8645 128.203 46.9972 128.028 47.0941C127.855 47.1893 127.686 47.2115 127.518 47.1606C127.353 47.1129 127.223 47.0028 127.128 46.8304ZM131.542 56.4934L130.935 55.0125L134.763 48.9034L129.341 51.1262L128.804 49.8142L136.258 46.7581L136.865 48.239L133.032 54.3502L138.459 52.1253L138.996 53.4373L131.542 56.4934ZM133.209 63.0125C133.075 62.4187 133.053 61.8474 133.142 61.2988C133.232 60.7536 133.419 60.2546 133.703 59.8018C133.99 59.3481 134.358 58.9624 134.808 58.6447C135.262 58.3296 135.782 58.1061 136.369 57.974C136.959 57.8411 137.525 57.8201 138.067 57.9111C138.609 58.0055 139.106 58.1966 139.556 58.4844C140.009 58.7713 140.394 59.1418 140.709 59.5957C141.025 60.0532 141.25 60.5806 141.384 61.1779C141.518 61.7718 141.54 62.3413 141.449 62.8864C141.359 63.4316 141.171 63.931 140.884 64.3846C140.6 64.8375 140.233 65.221 139.783 65.5353C139.332 65.8496 138.812 66.0731 138.222 66.206C137.635 66.3381 137.069 66.3591 136.524 66.2689C135.982 66.1779 135.484 65.989 135.031 65.702C134.581 65.4143 134.198 65.0434 133.883 64.5895C133.568 64.1356 133.343 63.6099 133.209 63.0125ZM134.424 62.7389C134.512 63.1267 134.664 63.4686 134.881 63.7648C135.098 64.0609 135.363 64.3004 135.676 64.4833C135.993 64.6688 136.341 64.7887 136.72 64.8428C137.1 64.9004 137.495 64.8832 137.903 64.7912C138.312 64.6992 138.676 64.5458 138.994 64.3309C139.314 64.1195 139.575 63.8625 139.779 63.5598C139.986 63.2598 140.125 62.9295 140.194 62.5689C140.264 62.2082 140.255 61.8341 140.167 61.4463C140.081 61.062 139.929 60.7201 139.711 60.4205C139.494 60.1243 139.227 59.8835 138.91 59.6979C138.597 59.515 138.25 59.3948 137.87 59.3372C137.49 59.2796 137.096 59.2968 136.687 59.3888C136.279 59.4808 135.915 59.6342 135.596 59.8491C135.278 60.0639 135.014 60.3214 134.807 60.6214C134.603 60.9241 134.467 61.2558 134.397 61.6164C134.329 61.9805 134.338 62.3547 134.424 62.7389Z" fill="black"/>
<path d="M132.544 92.4878L132.914 90.9583L136.275 89.954L136.687 88.2522L133.743 87.5391L134.076 86.161L141.907 88.0575L141.154 91.1635C141.007 91.7725 140.783 92.2692 140.484 92.6535C140.185 93.0379 139.824 93.3024 139.402 93.447C138.984 93.5925 138.519 93.6033 138.007 93.4794C137.464 93.3479 137.036 93.1023 136.721 92.7424C136.41 92.3834 136.227 91.9375 136.172 91.4047L132.544 92.4878ZM137.814 88.5253L137.42 90.154C137.298 90.6586 137.314 91.0771 137.469 91.4094C137.624 91.7453 137.903 91.9621 138.307 92.0599C138.71 92.1576 139.057 92.0943 139.347 91.8698C139.638 91.6454 139.844 91.2791 139.967 90.771L140.362 89.1423L137.814 88.5253ZM130.496 96.8532L130.972 96.4082L131.3 96.747C131.686 96.4014 132.118 96.1403 132.598 95.9638C133.081 95.792 133.585 95.7152 134.11 95.7333C134.636 95.7513 135.162 95.8729 135.689 96.0978C136.246 96.3355 136.717 96.6496 137.103 97.0403C137.488 97.4342 137.778 97.8795 137.975 98.3762C138.175 98.8743 138.27 99.3996 138.26 99.9521C138.249 100.508 138.123 101.066 137.884 101.625C137.793 101.84 137.689 102.042 137.572 102.234C137.454 102.429 137.325 102.607 137.186 102.77L137.537 103.124L137.078 103.582L136.742 103.234C136.355 103.575 135.923 103.829 135.447 103.996C134.97 104.166 134.471 104.241 133.95 104.221C133.427 104.204 132.903 104.083 132.376 103.858C131.823 103.622 131.351 103.308 130.962 102.916C130.576 102.525 130.283 102.081 130.083 101.583C129.886 101.086 129.793 100.561 129.803 100.009C129.813 99.4563 129.938 98.8985 130.178 98.3354C130.267 98.1279 130.369 97.9301 130.484 97.7418C130.595 97.5555 130.718 97.3821 130.853 97.2216L130.496 96.8532ZM132.224 97.6901L136.296 101.858C136.384 101.752 136.465 101.639 136.54 101.519C136.615 101.399 136.681 101.271 136.738 101.136C136.894 100.771 136.971 100.404 136.968 100.037C136.965 99.6699 136.89 99.3183 136.741 98.9823C136.596 98.6478 136.386 98.346 136.111 98.0769C135.837 97.8079 135.507 97.5911 135.122 97.4266C134.776 97.279 134.429 97.1932 134.081 97.1692C133.736 97.1466 133.406 97.1786 133.088 97.2651C132.773 97.3562 132.485 97.4979 132.224 97.6901ZM131.324 98.8247C131.17 99.1869 131.094 99.5516 131.097 99.9188C131.098 100.289 131.172 100.64 131.319 100.971C131.467 101.307 131.68 101.608 131.956 101.874C132.23 102.143 132.56 102.36 132.945 102.524C133.288 102.671 133.629 102.756 133.969 102.78C134.311 102.81 134.639 102.78 134.953 102.692C135.268 102.609 135.555 102.472 135.811 102.282L131.742 98.133C131.66 98.2342 131.583 98.3415 131.512 98.4549C131.442 98.573 131.379 98.6962 131.324 98.8247ZM124.065 110.039L124.913 108.713L128.417 108.855L129.36 107.38L126.807 105.749L127.571 104.554L134.36 108.892L132.639 111.585C132.301 112.113 131.929 112.51 131.52 112.776C131.112 113.043 130.685 113.175 130.239 113.175C129.796 113.177 129.353 113.036 128.91 112.752C128.439 112.452 128.113 112.08 127.933 111.637C127.756 111.197 127.727 110.716 127.848 110.194L124.065 110.039ZM130.337 108.005L129.435 109.417C129.155 109.854 129.035 110.255 129.074 110.62C129.111 110.988 129.304 111.284 129.654 111.507C130.004 111.731 130.353 111.784 130.7 111.666C131.048 111.548 131.362 111.269 131.644 110.828L132.546 109.416L130.337 108.005ZM119.32 115.928L122.681 112.018L128.791 117.27L127.867 118.345L122.702 113.906L120.265 116.741L119.32 115.928ZM117.673 117.702L123.046 123.705L119.24 127.111L118.409 126.183L121.159 123.722L119.744 122.141L117.154 124.459L116.327 123.534L118.916 121.217L117.448 119.576L114.658 122.073L113.827 121.144L117.673 117.702ZM110.121 131.298C110.473 131.372 110.834 131.37 111.206 131.291C111.574 131.214 111.925 131.067 112.258 130.85C112.597 130.63 112.87 130.369 113.076 130.069C113.279 129.77 113.412 129.445 113.473 129.093C113.537 128.744 113.527 128.384 113.443 128.011C113.361 127.642 113.202 127.276 112.966 126.912C112.728 126.546 112.453 126.246 112.143 126.012C111.832 125.783 111.502 125.623 111.154 125.534C110.802 125.446 110.446 125.434 110.086 125.498C109.726 125.561 109.376 125.703 109.037 125.923C108.743 126.114 108.502 126.335 108.314 126.585C108.128 126.838 107.998 127.111 107.923 127.403C107.847 127.7 107.828 128.009 107.866 128.33C107.904 128.652 108 128.974 108.154 129.296L110.289 127.909L110.886 128.828L107.702 130.897L107.378 130.467C107.044 129.954 106.818 129.432 106.7 128.902C106.581 128.377 106.566 127.864 106.654 127.363C106.744 126.864 106.935 126.401 107.225 125.974C107.515 125.546 107.901 125.175 108.385 124.861C108.883 124.537 109.403 124.325 109.945 124.225C110.483 124.127 111.014 124.132 111.537 124.241C112.059 124.354 112.547 124.566 113.001 124.878C113.453 125.191 113.841 125.598 114.167 126.1C114.491 126.598 114.704 127.117 114.807 127.656C114.909 128.201 114.907 128.734 114.802 129.255C114.693 129.778 114.484 130.264 114.174 130.713C113.863 131.168 113.459 131.556 112.964 131.878C112.493 132.184 111.99 132.396 111.455 132.513C110.917 132.631 110.38 132.649 109.844 132.567L110.121 131.298ZM99.9854 136.395C100.319 136.53 100.675 136.591 101.055 136.577C101.431 136.566 101.802 136.482 102.168 136.327C102.54 136.169 102.854 135.96 103.109 135.7C103.361 135.441 103.549 135.144 103.671 134.808C103.794 134.476 103.847 134.119 103.829 133.738C103.813 133.359 103.72 132.971 103.55 132.572C103.38 132.17 103.162 131.827 102.898 131.542C102.631 131.262 102.334 131.048 102.006 130.899C101.676 130.752 101.327 130.678 100.961 130.677C100.596 130.677 100.226 130.756 99.8539 130.914C99.5309 131.051 99.2552 131.226 99.0268 131.44C98.7999 131.657 98.6241 131.902 98.4994 132.177C98.3728 132.456 98.3003 132.757 98.2817 133.08C98.2631 133.403 98.3016 133.737 98.3972 134.081L100.741 133.087L101.169 134.096L97.673 135.579L97.4286 135.099C97.1895 134.535 97.058 133.983 97.0342 133.44C97.0084 132.903 97.0827 132.395 97.257 131.916C97.4327 131.441 97.7006 131.018 98.0607 130.648C98.4208 130.277 98.8662 129.979 99.397 129.754C99.9442 129.522 100.493 129.404 101.044 129.4C101.591 129.397 102.113 129.495 102.609 129.693C103.103 129.895 103.547 130.189 103.94 130.575C104.33 130.962 104.641 131.431 104.875 131.981C105.107 132.528 105.227 133.076 105.234 133.626C105.24 134.18 105.145 134.704 104.951 135.199C104.753 135.695 104.462 136.137 104.078 136.526C103.693 136.919 103.228 137.231 102.684 137.461C102.167 137.681 101.634 137.802 101.087 137.824C100.537 137.847 100.005 137.771 99.4915 137.596L99.9854 136.395ZM93.497 132.311L95.4503 140.128L90.4948 141.366L90.1927 140.157L93.7725 139.262L93.2582 137.204L89.8867 138.047L89.5859 136.843L92.9573 136L92.4234 133.864L88.7915 134.772L88.4894 133.563L93.497 132.311ZM79.2741 134.793L80.8399 134.635L82.9017 137.472L84.6438 137.297L84.3403 134.283L85.7511 134.141L86.5584 142.157L83.3787 142.477C82.7552 142.54 82.2125 142.494 81.7507 142.339C81.2888 142.184 80.9197 141.931 80.6433 141.581C80.3673 141.235 80.2029 140.8 80.1502 140.276C80.0942 139.72 80.1838 139.234 80.419 138.818C80.6546 138.406 81.0146 138.085 81.499 137.857L79.2741 134.793ZM84.7601 138.451L83.0927 138.619C82.5761 138.671 82.1868 138.826 81.9248 139.082C81.6591 139.339 81.5471 139.675 81.5888 140.088C81.6304 140.501 81.8052 140.807 82.1131 141.007C82.4211 141.206 82.8352 141.28 83.3553 141.227L85.0227 141.059L84.7601 138.451ZM74.4744 134.32L75.0532 134.62L74.844 135.043C75.2987 135.289 75.6897 135.61 76.017 136.003C76.3404 136.4 76.5817 136.849 76.7408 137.35C76.9 137.851 76.9618 138.388 76.9265 138.96C76.8891 139.564 76.7511 140.113 76.5124 140.608C76.2701 141.102 75.948 141.525 75.5459 141.877C75.1437 142.233 74.6806 142.498 74.1567 142.674C73.6292 142.849 73.0617 142.918 72.4542 142.881C72.2219 142.866 71.9959 142.836 71.7763 142.79C71.5532 142.744 71.3417 142.683 71.142 142.606L70.9258 143.055L70.3403 142.777L70.5555 142.343C70.1046 142.093 69.7209 141.772 69.4044 141.379C69.0843 140.986 68.8463 140.541 68.6905 140.043C68.5312 139.545 68.4692 139.011 68.5046 138.439C68.5417 137.838 68.6797 137.289 68.9186 136.791C69.1573 136.296 69.4778 135.871 69.8801 135.516C70.2821 135.164 70.7451 134.9 71.269 134.725C71.7929 134.549 72.3604 134.48 72.9715 134.518C73.1967 134.532 73.4172 134.561 73.6333 134.607C73.8459 134.649 74.0505 134.706 74.2468 134.78L74.4744 134.32ZM74.2648 136.228L71.7024 141.462C71.8322 141.509 71.9662 141.548 72.1042 141.578C72.2423 141.608 72.3846 141.628 72.5311 141.637C72.9278 141.661 73.2987 141.611 73.6437 141.485C73.9887 141.359 74.2946 141.17 74.5613 140.918C74.8279 140.669 75.0419 140.37 75.2034 140.021C75.3649 139.672 75.4585 139.289 75.4844 138.871C75.5076 138.495 75.4722 138.14 75.3782 137.804C75.2839 137.472 75.1429 137.171 74.9551 136.901C74.7635 136.634 74.5334 136.41 74.2648 136.228ZM72.8946 135.761C72.5014 135.737 72.1324 135.788 71.7874 135.914C71.4388 136.039 71.133 136.226 70.87 136.476C70.6033 136.728 70.391 137.029 70.233 137.378C70.0715 137.727 69.9779 138.11 69.952 138.528C69.929 138.9 69.963 139.25 70.0539 139.579C70.141 139.911 70.2785 140.21 70.4665 140.476C70.6507 140.746 70.8755 140.969 71.1407 141.147L73.6864 135.923C73.5635 135.88 73.4366 135.843 73.3057 135.814C73.171 135.787 73.034 135.77 72.8946 135.761ZM66.419 135.049L65.5255 135.959C65.327 135.716 65.1301 135.507 64.9349 135.331C64.7389 135.158 64.534 135.017 64.3204 134.906C64.1067 134.795 63.8828 134.714 63.6488 134.661C63.3484 134.593 63.0779 134.58 62.8374 134.621C62.5926 134.665 62.3905 134.756 62.2313 134.892C62.072 135.029 61.9676 135.207 61.918 135.427C61.8621 135.675 61.8908 135.898 62.004 136.096C62.1129 136.297 62.2745 136.484 62.4888 136.657C62.7022 136.834 62.934 137.011 63.1839 137.188C63.4118 137.35 63.6413 137.521 63.8722 137.701C64.0996 137.881 64.2993 138.078 64.4711 138.293C64.6421 138.511 64.7651 138.756 64.84 139.026C64.9114 139.295 64.9086 139.601 64.8314 139.943C64.7315 140.387 64.5327 140.748 64.2351 141.026C63.9368 141.307 63.5702 141.493 63.1353 141.582C62.6997 141.674 62.2286 141.664 61.7221 141.55C61.3658 141.469 61.0114 141.34 60.6589 141.161C60.3021 140.986 59.9615 140.762 59.6373 140.491L60.4389 139.499C60.6539 139.701 60.892 139.874 61.1534 140.017C61.4139 140.164 61.6717 140.266 61.9267 140.324C62.1782 140.381 62.4091 140.39 62.6193 140.353C62.8253 140.319 62.9989 140.241 63.1403 140.118C63.2773 139.999 63.3675 139.843 63.4108 139.651C63.462 139.424 63.4354 139.216 63.3311 139.027C63.2233 138.838 63.0679 138.656 62.8649 138.482C62.6611 138.311 62.4412 138.138 62.2052 137.964C61.9692 137.79 61.7352 137.607 61.5031 137.415C61.2668 137.226 61.0604 137.018 60.8839 136.791C60.704 136.563 60.5774 136.311 60.504 136.034C60.4272 135.756 60.4281 135.442 60.5068 135.093C60.6092 134.639 60.8181 134.265 61.1335 133.973C61.4447 133.684 61.835 133.491 62.3045 133.395C62.7732 133.302 63.2922 133.32 63.8616 133.448C64.3716 133.563 64.8421 133.755 65.2732 134.025C65.7043 134.295 66.0862 134.636 66.419 135.049ZM55.5164 131.184L56.8455 131.678L54.4724 138.062L56.7682 138.915L56.334 140.083L50.4185 137.884L50.8526 136.716L53.1433 137.568L55.5164 131.184ZM51.1311 129.452L47.3442 136.563L42.9542 134.226L43.5399 133.126L46.6783 134.797L47.6756 132.924L44.7268 131.354L45.31 130.259L48.2587 131.829L49.8795 128.786L51.1311 129.452ZM41.3049 123.224C41.7912 123.59 42.1777 124.012 42.4647 124.488C42.7488 124.962 42.9293 125.463 43.0063 125.992C43.0811 126.523 43.05 127.056 42.9129 127.589C42.7707 128.123 42.5187 128.63 42.1568 129.11C41.7927 129.594 41.3748 129.976 40.903 130.257C40.4283 130.536 39.9263 130.712 39.397 130.784C38.8654 130.859 38.3327 130.825 37.7987 130.683C37.2619 130.539 36.7489 130.282 36.2598 129.914C35.7736 129.548 35.3884 129.128 35.1043 128.654C34.8203 128.18 34.6408 127.677 34.566 127.146C34.489 126.617 34.5205 126.087 34.6605 125.556C34.8005 125.025 35.0525 124.518 35.4166 124.034C35.7785 123.554 36.1964 123.171 36.6703 122.887C37.1421 122.606 37.6438 122.428 38.1753 122.353C38.7047 122.281 39.2364 122.316 39.7703 122.458C40.3043 122.601 40.8158 122.856 41.3049 123.224ZM40.5553 124.22C40.2378 123.98 39.9004 123.818 39.5432 123.733C39.1861 123.648 38.8291 123.637 38.4723 123.7C38.1105 123.763 37.7676 123.897 37.4435 124.102C37.1165 124.304 36.827 124.572 36.575 124.907C36.3229 125.241 36.145 125.594 36.0411 125.964C35.9344 126.332 35.9014 126.697 35.9422 127.059C35.978 127.422 36.0862 127.764 36.2667 128.084C36.4473 128.403 36.6963 128.683 37.0138 128.922C37.3284 129.159 37.6657 129.321 38.0258 129.408C38.383 129.494 38.7425 129.504 39.1042 129.441C39.461 129.378 39.8029 129.245 40.1298 129.043C40.4568 128.841 40.7463 128.573 40.9984 128.238C41.2504 127.903 41.4284 127.551 41.5322 127.181C41.6361 126.811 41.6701 126.444 41.6343 126.081C41.5935 125.719 41.4828 125.378 41.3023 125.058C41.1189 124.736 40.8699 124.457 40.5553 124.22ZM32.3024 115.499L35.8866 119.206L30.0948 124.806L29.1091 123.787L34.0052 119.052L31.4066 116.365L32.3024 115.499ZM30.6969 113.69L24.159 118.399L22.6776 116.341C22.1063 115.548 21.7447 114.767 21.5927 113.998C21.4407 113.23 21.4973 112.512 21.7624 111.844C22.0246 111.179 22.4913 110.605 23.1625 110.121C23.8308 109.64 24.5235 109.379 25.2405 109.34C25.9576 109.3 26.6565 109.474 27.3373 109.862C28.0182 110.249 28.6442 110.84 29.2154 111.633L30.6969 113.69ZM28.8571 113.268L28.1729 112.318C27.769 111.757 27.3387 111.343 26.8818 111.077C26.42 110.809 25.9463 110.693 25.4607 110.73C24.9729 110.763 24.4894 110.953 24.0099 111.298C23.5305 111.643 23.1975 112.042 23.0111 112.494C22.8226 112.943 22.7835 113.428 22.8937 113.948C22.999 114.468 23.2535 115.009 23.6574 115.57L24.3416 116.52L28.8571 113.268ZM24.8391 105.109C24.9359 105.285 24.9603 105.456 24.9124 105.621C24.8645 105.786 24.7544 105.916 24.5819 106.012C24.4062 106.108 24.2357 106.133 24.0704 106.085C23.9018 106.039 23.7692 105.928 23.6724 105.752C23.5774 105.58 23.5554 105.41 23.6064 105.243C23.6525 105.074 23.7634 104.942 23.9391 104.845C24.1115 104.75 24.2813 104.728 24.4485 104.779C24.6138 104.827 24.744 104.937 24.8391 105.109ZM20.4366 95.4412L21.0417 96.923L17.2049 103.027L22.6298 100.811L23.1659 102.124L15.7073 105.17L15.1021 103.688L18.9439 97.5824L13.5141 99.8L12.978 98.4873L20.4366 95.4412ZM18.7776 88.9201C18.9106 89.5142 18.9321 90.0854 18.8421 90.634C18.7513 91.179 18.5639 91.6778 18.28 92.1304C17.9925 92.5837 17.6238 92.969 17.1737 93.2862C16.7194 93.6008 16.1988 93.8237 15.6117 93.9552C15.0212 94.0874 14.4552 94.1077 13.9136 94.0161C13.3713 93.9211 12.8752 93.7294 12.4254 93.4412C11.9721 93.1537 11.5881 92.7829 11.2736 92.3286C10.9583 91.8708 10.7337 91.3431 10.6 90.7456C10.467 90.1516 10.4458 89.5821 10.5366 89.037C10.6274 88.492 10.8165 87.9928 11.104 87.5395C11.388 87.0869 11.7554 86.7038 12.2062 86.39C12.657 86.0763 13.1776 85.8533 13.7681 85.7211C14.3552 85.5896 14.9212 85.5693 15.4663 85.6601C16.0078 85.7517 16.5053 85.9412 16.9586 86.2286C17.4084 86.5169 17.7906 86.8881 18.1051 87.3424C18.4197 87.7967 18.6438 88.3226 18.7776 88.9201ZM17.5616 89.1924C17.4748 88.8045 17.3229 88.4624 17.1061 88.166C16.8893 87.8697 16.6247 87.6299 16.3121 87.4467C15.9953 87.2607 15.6473 87.1405 15.2681 87.086C14.8882 87.0279 14.4938 87.0447 14.085 87.1362C13.6762 87.2277 13.3123 87.3808 12.9934 87.5953C12.6737 87.8063 12.412 88.063 12.2081 88.3655C12.0001 88.6653 11.8612 88.9955 11.7914 89.356C11.7217 89.7165 11.7303 90.0907 11.8171 90.4786C11.9032 90.8629 12.055 91.2051 12.2726 91.5049C12.4894 91.8013 12.7562 92.0425 13.073 92.2284C13.3856 92.4116 13.7318 92.5322 14.1118 92.5903C14.4917 92.6483 14.8861 92.6316 15.2949 92.54C15.7037 92.4485 16.0676 92.2955 16.3865 92.081C16.7054 91.8664 16.9689 91.6093 17.177 91.3095C17.3808 91.007 17.5176 90.6755 17.5873 90.315C17.6562 89.951 17.6477 89.5768 17.5616 89.1924Z" fill="black"/>
<circle cx="76" cy="76" r="52" stroke="black" stroke-width="2"/>
<circle cx="76" cy="76" r="75" stroke="black" stroke-width="2"/>
</g>
<defs>
<clipPath id="clip0_2029_492">
<rect width="152" height="152" fill="white"/>
</clipPath>
</defs>
</svg>
