<svg width="208" height="66" viewBox="0 0 208 66" fill="none" xmlns="http://www.w3.org/2000/svg">
<path d="M10.6272 33.5C10.6272 35.2874 10.9471 37.0617 11.5776 38.7378C12.2816 40.6087 13.3545 42.3193 14.734 43.766C16.1138 45.2128 17.7729 46.367 19.6086 47.1589C21.4442 47.9507 23.4202 48.3641 25.4192 48.375C27.4185 48.3859 29.4 47.9952 31.2443 47.2233C33.0885 46.4513 34.7587 45.3139 36.1542 43.8822C37.5492 42.4506 38.6424 40.7524 39.3666 38.8893C40.0349 37.1698 40.371 35.3421 40.371 33.5H44.6189C44.6189 35.8685 44.1854 38.2183 43.3261 40.4291C42.3948 42.8248 40.9904 45.0091 39.1964 46.8497C37.4024 48.6903 35.2546 50.1489 32.8837 51.1412C30.5128 52.1336 27.9665 52.6389 25.3964 52.625C22.8263 52.611 20.2856 52.0782 17.9257 51.0603C15.5656 50.0422 13.4346 48.5583 11.6606 46.6982C9.88678 44.8382 8.5046 42.6397 7.59949 40.234C6.78889 38.0793 6.37719 35.7978 6.3772 33.5H10.6272Z" fill="black"/>
<path fill-rule="evenodd" clip-rule="evenodd" d="M25.5001 14.375C30.8126 18.2 36.1251 25.85 36.1251 33.5C36.1251 39.368 31.3682 44.125 25.5001 44.125C19.6321 44.125 14.8751 39.368 14.8751 33.5C14.8751 25.85 20.1876 18.2 25.5001 14.375ZM22.7567 39.2462C23.5886 39.6441 24.5164 39.875 25.5001 39.875C29.0209 39.875 31.8751 37.0208 31.8751 33.5C31.8751 32.6176 31.7313 31.5991 31.485 30.5179L22.7567 39.2462ZM25.5001 19.6875C22.3126 21.8125 19.1251 29.25 19.1251 33.5C19.1251 34.4827 19.3547 35.4101 19.7518 36.2413L29.9763 26.0168C28.771 23.2739 27.1374 20.779 25.5001 19.6875Z" fill="black"/>
<path d="M158.16 48.4194V34.2469H162.619C164.339 34.2469 165.825 34.5335 167.079 35.1067C168.332 35.6799 169.299 36.4988 169.98 37.5633C170.66 38.6215 171 39.8781 171 41.3332C171 42.7819 170.66 44.0386 169.98 45.1031C169.299 46.1676 168.332 46.9864 167.079 47.5596C165.825 48.1328 164.339 48.4194 162.619 48.4194H158.16ZM160.654 46.2274H162.714C163.929 46.2274 164.962 46.0384 165.813 45.6605C166.669 45.2763 167.321 44.7188 167.769 43.9882C168.222 43.2575 168.449 42.3725 168.449 41.3332C168.449 40.2939 168.222 39.4089 167.769 38.6782C167.321 37.9475 166.669 37.3932 165.813 37.0153C164.962 36.6311 163.929 36.439 162.714 36.439H160.654V46.2274Z" fill="black"/>
<path d="M151.905 48.4194H142.835V34.2469H145.329V46.2274H151.905V48.4194Z" fill="black"/>
<path d="M128.946 48.7029C127.875 48.7029 126.886 48.5202 125.979 48.1549C125.078 47.7895 124.294 47.2762 123.626 46.6148C122.959 45.9471 122.439 45.1661 122.067 44.2716C121.702 43.3709 121.519 42.3914 121.519 41.3332C121.519 40.2687 121.702 39.2892 122.067 38.3948C122.439 37.5003 122.959 36.7224 123.626 36.061C124.294 35.3933 125.078 34.8768 125.979 34.5115C126.886 34.1462 127.878 33.9635 128.955 33.9635C130.026 33.9635 131.012 34.1462 131.912 34.5115C132.813 34.8768 133.597 35.3933 134.265 36.061C134.933 36.7224 135.449 37.5003 135.815 38.3948C136.18 39.2892 136.363 40.2687 136.363 41.3332C136.363 42.3914 136.18 43.3709 135.815 44.2716C135.449 45.1661 134.933 45.9471 134.265 46.6148C133.597 47.2762 132.813 47.7895 131.912 48.1549C131.012 48.5202 130.023 48.7029 128.946 48.7029ZM128.946 46.5109C129.645 46.5109 130.29 46.3817 130.883 46.1235C131.475 45.8652 131.988 45.503 132.423 45.0369C132.864 44.5645 133.204 44.0134 133.443 43.3835C133.689 42.7536 133.812 42.0702 133.812 41.3332C133.812 40.5962 133.689 39.9128 133.443 39.2829C133.204 38.653 132.864 38.105 132.423 37.6389C131.988 37.1665 131.475 36.8011 130.883 36.5429C130.29 36.2846 129.645 36.1555 128.946 36.1555C128.253 36.1555 127.607 36.2846 127.009 36.5429C126.417 36.8011 125.9 37.1665 125.459 37.6389C125.025 38.105 124.684 38.653 124.439 39.2829C124.193 39.9128 124.07 40.5962 124.07 41.3332C124.07 42.0702 124.193 42.7536 124.439 43.3835C124.684 44.0134 125.025 44.5645 125.459 45.0369C125.9 45.503 126.417 45.8652 127.009 46.1235C127.607 46.3817 128.253 46.5109 128.946 46.5109Z" fill="black"/>
<path d="M106.402 48.4194V34.2469H115.151V36.439H108.896V40.171H114.773V42.3536H108.896V48.4194H106.402Z" fill="black"/>
<path d="M96.1031 48.4194H93.6087V36.439H89.3003V34.2469H100.402V36.439H96.1031V48.4194Z" fill="black"/>
<path d="M73.6541 46.9457L74.8351 45.0372C75.2697 45.3773 75.6886 45.6608 76.0917 45.8875C76.4948 46.108 76.9011 46.2718 77.3106 46.3788C77.72 46.4859 78.1357 46.5395 78.5577 46.5395C79.0994 46.5395 79.5687 46.4576 79.9655 46.2938C80.3687 46.1237 80.6805 45.8907 80.9009 45.5946C81.1214 45.2986 81.2316 44.9521 81.2316 44.5553C81.2316 44.1081 81.0962 43.7365 80.8253 43.4404C80.5608 43.1381 80.2112 42.8798 79.7766 42.6656C79.3419 42.4452 78.8758 42.231 78.3782 42.0232C77.9247 41.8342 77.4649 41.6295 76.9988 41.409C76.5389 41.1886 76.1201 40.9272 75.7421 40.6248C75.3642 40.3162 75.0587 39.9445 74.8256 39.5099C74.5989 39.0753 74.4855 38.5493 74.4855 37.932C74.4855 37.1321 74.6871 36.4361 75.0902 35.844C75.4933 35.2456 76.0508 34.7857 76.7625 34.4645C77.4743 34.137 78.2869 33.9732 79.2002 33.9732C79.8427 33.9732 80.5009 34.0582 81.1749 34.2283C81.8552 34.3921 82.526 34.644 83.1874 34.9842L82.1953 36.9967C81.7481 36.7321 81.2725 36.5274 80.7686 36.3825C80.2647 36.2313 79.7829 36.1558 79.323 36.1558C78.8695 36.1558 78.4695 36.2282 78.1231 36.3731C77.783 36.5116 77.5153 36.7132 77.32 36.9778C77.131 37.236 77.0366 37.5384 77.0366 37.8848C77.0366 38.2942 77.1625 38.6407 77.4145 38.9241C77.6727 39.2076 78.0097 39.4595 78.4255 39.68C78.8412 39.8941 79.2852 40.1051 79.7577 40.313C80.2301 40.5209 80.7025 40.7445 81.1749 40.9838C81.6536 41.2169 82.0883 41.4941 82.4788 41.8153C82.8756 42.1365 83.1906 42.5208 83.4236 42.968C83.663 43.4152 83.7826 43.9538 83.7826 44.5837C83.7826 45.4025 83.5685 46.1237 83.1402 46.7473C82.7181 47.3646 82.1229 47.8465 81.3544 48.1929C80.586 48.533 79.6884 48.7031 78.6617 48.7031C77.742 48.7031 76.8602 48.5551 76.0161 48.259C75.1721 47.963 74.3847 47.5252 73.6541 46.9457Z" fill="black"/>
<path d="M60.4264 49.0272C59.3556 49.0272 58.3666 48.8445 57.4596 48.4792C56.5589 48.1139 55.7747 47.6005 55.107 46.9391C54.4393 46.2714 53.9196 45.4904 53.548 44.5959C53.1827 43.6952 53 42.7157 53 41.6575C53 40.593 53.1827 39.6135 53.548 38.7191C53.9196 37.8246 54.4393 37.0467 55.107 36.3854C55.7747 35.7177 56.5589 35.2012 57.4596 34.8358C58.3666 34.4705 59.3587 34.2878 60.4358 34.2878C61.5066 34.2878 62.4924 34.4705 63.3931 34.8358C64.2939 35.2012 65.0781 35.7177 65.7458 36.3854C66.4135 37.0467 66.93 37.8246 67.2953 38.7191C67.6606 39.6135 67.8433 40.593 67.8433 41.6575C67.8433 42.7157 67.6606 43.6952 67.2953 44.5959C66.93 45.4904 66.4135 46.2714 65.7458 46.9391C65.0781 47.6005 64.2939 48.1139 63.3931 48.4792C62.4924 48.8445 61.5035 49.0272 60.4264 49.0272ZM60.4264 46.8352C61.1256 46.8352 61.7712 46.7061 62.3633 46.4478C62.9554 46.1896 63.4687 45.8274 63.9034 45.3613C64.3443 44.8888 64.6844 44.3377 64.9238 43.7078C65.1694 43.0779 65.2923 42.3945 65.2923 41.6575C65.2923 40.9205 65.1694 40.2371 64.9238 39.6072C64.6844 38.9773 64.3443 38.4293 63.9034 37.9632C63.4687 37.4908 62.9554 37.1255 62.3633 36.8672C61.7712 36.609 61.1256 36.4798 60.4264 36.4798C59.7335 36.4798 59.0879 36.609 58.4895 36.8672C57.8974 37.1255 57.3809 37.4908 56.9399 37.9632C56.5053 38.4293 56.1652 38.9773 55.9195 39.6072C55.6739 40.2371 55.551 40.9205 55.551 41.6575C55.551 42.3945 55.6739 43.0779 55.9195 43.7078C56.1652 44.3377 56.5053 44.8888 56.9399 45.3613C57.3809 45.8274 57.8974 46.1896 58.4895 46.4478C59.0879 46.7061 59.7335 46.8352 60.4264 46.8352Z" fill="black"/>
<rect x="63.9495" y="36.7864" width="2.39023" height="11.9512" transform="rotate(45 63.9495 36.7864)" fill="black"/>
<path d="M158 27.8983H156.279L154.347 24.5525H152.432V27.8983H150.881V19H154.376C155.061 19 155.647 19.1107 156.132 19.3322C156.618 19.5537 156.992 19.872 157.254 20.2873C157.516 20.6986 157.648 21.1949 157.648 21.7763C157.648 22.3932 157.497 22.9172 157.195 23.3483C156.894 23.7754 156.467 24.0879 155.915 24.2856L158 27.8983ZM152.432 23.2712H154.264C154.832 23.2712 155.273 23.1446 155.586 22.8915C155.903 22.6384 156.062 22.2825 156.062 21.8237C156.062 21.365 155.905 21.009 155.592 20.7559C155.279 20.5028 154.836 20.3763 154.264 20.3763H152.432V23.2712Z" fill="black"/>
<path d="M139.313 27.8983V19H145.477V20.3763H141.025V22.7195H145.218V24.0898H141.025V26.522H145.542V27.8983H139.313Z" fill="black"/>
<path d="M131.938 21.1618C131.658 20.8918 131.322 20.6846 130.931 20.5401C130.545 20.3956 130.132 20.3233 129.694 20.3233C129.248 20.3233 128.84 20.3975 128.469 20.5458C128.101 20.6941 127.784 20.9071 127.515 21.1846C127.247 21.4584 127.04 21.7855 126.894 22.1657C126.748 22.5422 126.675 22.9605 126.675 23.4206C126.675 23.8846 126.748 24.3105 126.894 24.6983C127.044 25.0824 127.253 25.4151 127.521 25.6965C127.794 25.9779 128.115 26.1947 128.486 26.3468C128.857 26.4989 129.266 26.575 129.712 26.575C130.099 26.575 130.454 26.5179 130.777 26.4038C131.101 26.286 131.385 26.1186 131.63 25.9019C131.879 25.6813 132.082 25.417 132.24 25.109C132.398 24.801 132.502 24.4588 132.554 24.0823H129.747V22.9187H133.933L133.974 23.4891C133.974 24.1393 133.87 24.7345 133.661 25.2744C133.455 25.8106 133.161 26.2765 132.779 26.6719C132.396 27.0636 131.942 27.3659 131.417 27.5789C130.892 27.7918 130.312 27.8983 129.676 27.8983C129.021 27.8983 128.413 27.7861 127.853 27.5618C127.296 27.3374 126.809 27.0256 126.39 26.6263C125.976 26.2232 125.652 25.7517 125.42 25.2117C125.191 24.6717 125.076 24.0842 125.076 23.4492C125.076 22.8179 125.191 22.2323 125.42 21.6923C125.652 21.1485 125.974 20.6751 126.385 20.272C126.799 19.8689 127.284 19.5571 127.841 19.3365C128.401 19.1122 129.007 19 129.659 19C130.278 19 130.87 19.1027 131.435 19.308C132.003 19.5134 132.51 19.8081 132.956 20.1921L131.938 21.1618Z" fill="black"/>
<path d="M117.701 21.1618C117.421 20.8918 117.085 20.6846 116.694 20.5401C116.308 20.3956 115.895 20.3233 115.457 20.3233C115.011 20.3233 114.602 20.3975 114.231 20.5458C113.864 20.6941 113.547 20.9071 113.278 21.1846C113.01 21.4584 112.803 21.7855 112.657 22.1657C112.511 22.5422 112.438 22.9605 112.438 23.4206C112.438 23.8846 112.511 24.3105 112.657 24.6983C112.807 25.0824 113.016 25.4151 113.284 25.6965C113.557 25.9779 113.878 26.1947 114.249 26.3468C114.62 26.4989 115.029 26.575 115.475 26.575C115.862 26.575 116.217 26.5179 116.54 26.4038C116.864 26.286 117.148 26.1186 117.393 25.9019C117.642 25.6813 117.845 25.417 118.003 25.109C118.161 24.801 118.265 24.4588 118.317 24.0823H115.51V22.9187H119.696L119.737 23.4891C119.737 24.1393 119.633 24.7345 119.424 25.2744C119.218 25.8106 118.924 26.2765 118.542 26.6719C118.159 27.0636 117.705 27.3659 117.18 27.5789C116.655 27.7918 116.075 27.8983 115.439 27.8983C114.784 27.8983 114.176 27.7861 113.616 27.5618C113.059 27.3374 112.572 27.0256 112.153 26.6263C111.739 26.2232 111.415 25.7517 111.182 25.2117C110.954 24.6717 110.839 24.0842 110.839 23.4492C110.839 22.8179 110.954 22.2323 111.182 21.6923C111.415 21.1485 111.737 20.6751 112.148 20.272C112.562 19.8689 113.047 19.5571 113.604 19.3365C114.164 19.1122 114.77 19 115.421 19C116.041 19 116.633 19.1027 117.198 19.308C117.766 19.5134 118.273 19.8081 118.719 20.1921L117.701 21.1618Z" fill="black"/>
<path d="M100.161 27.8983V19H105.444V20.3763H101.628V22.7195H105.222V24.0898H101.628V26.522H105.5V27.8983H100.161Z" fill="black"/>
<path d="M94.8221 27.8983H89.4832V19H90.9514V26.522H94.8221V27.8983Z" fill="black"/>
<path d="M84.144 27.8983H82.4231L80.4907 24.5525H78.576V27.8983H77.0254V19H80.5201C81.2053 19 81.7907 19.1107 82.2763 19.3322C82.7618 19.5537 83.1358 19.872 83.3981 20.2873C83.6605 20.6986 83.7916 21.1949 83.7916 21.7763C83.7916 22.3932 83.6409 22.9172 83.3394 23.3483C83.0379 23.7754 82.6111 24.0879 82.059 24.2856L84.144 27.8983ZM78.576 23.2712H80.4085C80.9763 23.2712 81.4168 23.1446 81.73 22.8915C82.0472 22.6384 82.2058 22.2825 82.2058 21.8237C82.2058 21.365 82.0492 21.009 81.7359 20.7559C81.4227 20.5028 80.9802 20.3763 80.4085 20.3763H78.576V23.2712Z" fill="black"/>
<path d="M60.1186 27.8983H58.3977L56.4653 24.5525H54.5506V27.8983H53V19H56.4947C57.18 19 57.7653 19.1107 58.2509 19.3322C58.7364 19.5537 59.1104 19.872 59.3727 20.2873C59.6351 20.6986 59.7662 21.1949 59.7662 21.7763C59.7662 22.3932 59.6155 22.9172 59.314 23.3483C59.0125 23.7754 58.5857 24.0879 58.0336 24.2856L60.1186 27.8983ZM54.5506 23.2712H56.3831C56.9509 23.2712 57.3914 23.1446 57.7046 22.8915C58.0218 22.6384 58.1804 22.2825 58.1804 21.8237C58.1804 21.365 58.0238 21.009 57.7105 20.7559C57.3973 20.5028 56.9548 20.3763 56.3831 20.3763H54.5506V23.2712Z" fill="black"/>
<path d="M68.1614 27.8983C67.5149 27.8983 66.9179 27.788 66.3703 27.5675C65.8265 27.3469 65.3531 27.037 64.95 26.6377C64.5469 26.2346 64.2332 25.7631 64.0088 25.2231C63.7883 24.6793 63.678 24.088 63.678 23.4492C63.678 22.8065 63.7883 22.2152 64.0088 21.6752C64.2332 21.1352 64.5469 20.6656 64.95 20.2663C65.3531 19.8632 65.8265 19.5514 66.3703 19.3308C66.9179 19.1103 67.5168 19 68.1671 19C68.8135 19 69.4086 19.1103 69.9524 19.3308C70.4962 19.5514 70.9696 19.8632 71.3727 20.2663C71.7758 20.6656 72.0876 21.1352 72.3082 21.6752C72.5288 22.2152 72.639 22.8065 72.639 23.4492C72.639 24.088 72.5288 24.6793 72.3082 25.2231C72.0876 25.7631 71.7758 26.2346 71.3727 26.6377C70.9696 27.037 70.4962 27.3469 69.9524 27.5675C69.4086 27.788 68.8116 27.8983 68.1614 27.8983ZM68.1614 26.575C68.5835 26.575 68.9732 26.497 69.3307 26.3411C69.6881 26.1852 69.9981 25.9665 70.2604 25.6851C70.5266 25.3999 70.732 25.0672 70.8765 24.6869C71.0248 24.3067 71.0989 23.8941 71.0989 23.4492C71.0989 23.0042 71.0248 22.5916 70.8765 22.2114C70.732 21.8311 70.5266 21.5003 70.2604 21.2189C69.9981 20.9337 69.6881 20.7131 69.3307 20.5572C68.9732 20.4013 68.5835 20.3233 68.1614 20.3233C67.7431 20.3233 67.3533 20.4013 66.992 20.5572C66.6346 20.7131 66.3228 20.9337 66.0566 21.2189C65.7942 21.5003 65.5888 21.8311 65.4405 22.2114C65.2922 22.5916 65.2181 23.0042 65.2181 23.4492C65.2181 23.8941 65.2922 24.3067 65.4405 24.6869C65.5888 25.0672 65.7942 25.3999 66.0566 25.6851C66.3228 25.9665 66.6346 26.1852 66.992 26.3411C67.3533 26.497 67.7431 26.575 68.1614 26.575Z" fill="black"/>
<rect x="70.2881" y="20.5084" width="1.44301" height="7.21504" transform="rotate(45 70.2881 20.5084)" fill="black"/>
</svg>
